<?xml version="1.0" standalone="no"?>
<!DOCTYPE svg PUBLIC "-//W3C//DTD SVG 20010904//EN"
 "http://www.w3.org/TR/2001/REC-SVG-20010904/DTD/svg10.dtd">
<svg version="1.0" xmlns="http://www.w3.org/2000/svg"
 width="260.000000pt" height="260.000000pt" viewBox="0 0 260.000000 260.000000"
 preserveAspectRatio="xMidYMid meet">
<metadata>
Created by potrace 1.14, written by Peter Selinger 2001-2017
</metadata>
<g transform="translate(0.000000,260.000000) scale(0.100000,-0.100000)"
fill="#000000" stroke="none">
<path d="M1265 2362 c-53 -4 -131 -30 -176 -58 -94 -59 -138 -164 -118 -287 6
-33 8 -61 6 -64 -3 -2 -25 10 -50 27 -84 56 -171 83 -272 83 -106 1 -177 -22
-243 -79 -181 -155 -101 -376 165 -457 40 -12 73 -25 73 -28 0 -3 -23 -11 -51
-18 -77 -20 -164 -68 -214 -117 -166 -167 -24 -415 248 -431 70 -5 93 -2 160
21 43 15 103 42 133 61 l54 35 -7 -43 c-5 -23 -7 -66 -6 -96 5 -163 137 -272
333 -275 148 -2 252 47 314 147 33 54 46 155 27 221 -6 22 -9 42 -6 44 2 2 24
-10 49 -27 25 -18 76 -44 113 -58 58 -23 83 -27 173 -27 89 0 112 3 151 22
109 54 179 148 179 243 0 66 -43 144 -106 191 -45 34 -169 91 -219 101 -13 2
2 10 40 21 132 39 220 100 259 178 80 161 -39 334 -254 369 -100 16 -234 -17
-330 -81 -25 -16 -48 -30 -52 -30 -3 0 -2 17 4 38 15 53 5 160 -20 208 -26 50
-91 110 -148 135 -47 21 -145 36 -209 31z m161 -37 c106 -33 180 -117 192
-221 7 -61 -15 -152 -54 -230 l-33 -65 73 69 c117 111 235 166 356 166 127 0
236 -60 284 -156 91 -182 -77 -341 -399 -377 -89 -10 -109 -21 -39 -21 57 0
181 -22 240 -44 139 -49 223 -140 224 -242 0 -53 -42 -136 -88 -174 -158 -130
-418 -82 -602 111 l-57 60 39 -78 c90 -182 69 -330 -61 -412 -60 -38 -110 -51
-197 -51 -134 0 -227 47 -280 142 -51 94 -36 220 43 355 26 45 26 45 -44 -23
-125 -123 -246 -179 -385 -177 -164 3 -291 108 -292 243 -1 65 34 134 87 174
84 64 242 114 372 116 37 1 45 4 30 10 -11 5 -38 9 -60 9 -55 1 -191 35 -257
64 -30 13 -71 39 -93 58 -40 36 -85 118 -85 158 0 89 91 203 190 236 159 53
340 -6 491 -158 l68 -69 -34 64 c-117 220 -63 400 140 464 55 18 172 17 231
-1z"/>
<path d="M1107 1723 c-4 -3 -7 -107 -7 -231 l0 -224 108 4 c83 3 118 9 157 26
95 44 145 114 145 205 0 103 -83 186 -214 214 -65 13 -178 17 -189 6z m219
-48 c49 -14 109 -64 133 -112 26 -51 3 -152 -45 -194 -46 -41 -109 -62 -191
-67 l-83 -5 0 197 0 196 68 0 c38 0 91 -7 118 -15z"/>
<path d="M550 702 c0 -25 -102 -151 -122 -152 -24 0 -23 -15 3 -39 59 -55 161
-68 219 -28 48 32 72 69 72 110 0 52 -18 76 -75 103 -63 29 -97 31 -97 6z
m103 -42 c51 -40 39 -111 -26 -150 -40 -25 -107 -26 -136 -2 l-21 17 62 78
c33 42 69 77 78 77 10 0 29 -9 43 -20z"/>
<path d="M1925 678 c-3 -7 4 -42 15 -78 12 -39 16 -66 10 -68 -17 -6 -11 -29
9 -35 11 -3 22 -17 26 -36 6 -29 27 -41 39 -22 3 5 -1 25 -9 45 l-15 36 48 24
49 25 36 -25 c20 -13 43 -24 51 -24 26 0 18 24 -15 42 -19 11 -29 24 -27 35 2
14 -3 17 -24 15 -18 -2 -49 11 -91 38 -66 41 -94 49 -102 28z m92 -58 c24 -14
43 -28 43 -31 0 -3 -15 -13 -34 -22 l-34 -16 -16 46 c-22 65 -26 63 41 23z"/>
<path d="M1725 598 c-3 -8 8 -47 25 -87 17 -40 30 -75 27 -77 -2 -2 -44 25
-94 61 -50 36 -100 65 -112 65 -11 0 -21 -2 -21 -5 0 -22 96 -235 106 -235 24
0 23 17 -6 86 -16 38 -30 74 -30 81 0 7 43 -19 96 -57 141 -103 148 -97 81 69
-41 101 -61 128 -72 99z"/>
<path d="M895 566 c-51 -22 -85 -71 -85 -122 0 -57 21 -88 71 -108 51 -21 74
-20 126 4 104 47 112 184 13 224 -48 19 -84 20 -125 2z m108 -28 c69 -36 61
-135 -14 -174 -55 -28 -119 -6 -138 46 -29 84 73 170 152 128z"/>
<path d="M1227 533 c-2 -5 -2 -61 1 -125 4 -110 6 -118 25 -118 18 0 19 5 15
85 -2 47 -2 85 2 85 3 0 36 -38 73 -85 62 -78 90 -100 99 -75 2 5 2 61 0 125
-3 108 -5 115 -23 115 -19 0 -20 -5 -17 -85 2 -47 0 -85 -4 -85 -3 0 -36 38
-73 85 -60 77 -86 98 -98 78z"/>
</g>
</svg>
